<?xml version="1.0" encoding="UTF-8"?><svg id="_レイヤー_2" xmlns="http://www.w3.org/2000/svg" xmlns:xlink="http://www.w3.org/1999/xlink" viewBox="0 0 73.95 74.09"><defs><style>.cls-1{fill:url(#_名称未設定グラデーション);}</style><linearGradient id="_名称未設定グラデーション" x1="-216.03" y1="530.57" x2="-215.03" y2="530.57" gradientTransform="translate(15976.38 39349.1) scale(73.95 -74.09)" gradientUnits="userSpaceOnUse"><stop offset="0" stop-color="#8f5e25"/><stop offset=".5" stop-color="#fbf4a1"/><stop offset="1" stop-color="#8f5e25"/></linearGradient></defs><g id="_レイヤー_1-2"><path class="cls-1" d="m73.95,40.06v-6.03h-14.35c-.47-4.1-2.05-7.85-4.4-10.98l10.05-10.08-4.25-4.26-10.02,10.04c-3.12-2.43-6.88-4.05-10.99-4.57V0h-6.02v14.24c-4.06.58-7.77,2.22-10.84,4.67l-10.17-10.2-4.26,4.27,10.26,10.27c-2.27,3.09-3.79,6.77-4.25,10.78H0v6.03h14.83c.59,3.89,2.17,7.45,4.47,10.43l-10.6,10.62,4.25,4.27,10.63-10.65c2.98,2.24,6.52,3.77,10.38,4.32v15.05h6.02v-14.99c3.91-.5,7.49-1.99,10.52-4.22l10.48,10.5,4.25-4.27-10.39-10.41c2.39-3.02,4.02-6.66,4.62-10.64h14.47Zm-36.84,13.13c-9.14,0-16.55-7.42-16.55-16.59s7.41-16.58,16.55-16.58,16.55,7.43,16.55,16.58c0,9.17-7.41,16.59-16.55,16.59Z"/></g></svg>