
        <svg xmlns="http://www.w3.org/2000/svg" xmlns:xlink="http://www.w3.org/1999/xlink" version="1.1" width="3176.470588235294" height="2135.1354575583227" viewBox="0 0 3176.470588235294 2135.1354575583227">
			
			<g transform="scale(8.823529411764707) translate(10, 10)">
				<defs id="SvgjsDefs7559"><linearGradient id="SvgjsLinearGradient7566"><stop id="SvgjsStop7567" stop-color="#b88746" offset="0"/><stop id="SvgjsStop7568" stop-color="#fdf5a6" offset="1"/></linearGradient><linearGradient id="SvgjsLinearGradient7569"><stop id="SvgjsStop7570" stop-color="#b88746" offset="0"/><stop id="SvgjsStop7571" stop-color="#fdf5a6" offset="1"/></linearGradient><linearGradient id="SvgjsLinearGradient7572"><stop id="SvgjsStop7573" stop-color="#b88746" offset="0"/><stop id="SvgjsStop7574" stop-color="#fdf5a6" offset="1"/></linearGradient></defs><g id="SvgjsG7560" featureKey="JQyOZB-0" transform="matrix(3.3758962061725875,0,0,3.3758962061725875,85,-12.433426023528146)" fill="#000"><g xmlns="http://www.w3.org/2000/svg"><path d="M23.476,16.375v-1.911h-4.555c-0.15-1.298-0.651-2.487-1.397-3.478l3.19-3.193l-1.35-1.35l-3.182,3.18   c-0.99-0.768-2.185-1.282-3.488-1.446V3.683h-1.912v4.512c-1.289,0.183-2.466,0.704-3.44,1.479L4.114,6.444L2.762,7.797   l3.256,3.253c-0.722,0.98-1.203,2.145-1.35,3.414H0v1.911h4.708c0.188,1.233,0.688,2.362,1.419,3.305l-3.364,3.365l1.351,1.352   l3.374-3.375c0.946,0.711,2.071,1.195,3.295,1.369v4.769h1.912v-4.751c1.24-0.157,2.378-0.631,3.341-1.338l3.328,3.328l1.351-1.352   l-3.299-3.3c0.759-0.957,1.275-2.109,1.467-3.37H23.476L23.476,16.375z M11.782,20.536c-2.902,0-5.255-2.352-5.255-5.257   c0-2.901,2.352-5.254,5.255-5.254c2.903,0,5.255,2.353,5.255,5.254C17.038,18.184,14.685,20.536,11.782,20.536z"/></g><g xmlns="http://www.w3.org/2000/svg"><g><polygon points="27.85,25.821 22.563,25.821 19.648,31.218 24.933,31.218   "/><polygon points="34.836,24.533 38.3,18.127 33.451,18.11 29.98,24.533   "/><polygon points="34.14,25.821 29.283,25.821 26.366,31.218 31.223,31.218   "/><polygon points="22.753,37.902 27.607,37.902 30.524,32.506 25.669,32.506   "/><polygon points="22.056,39.19 18.355,46.036 23.201,46.052 26.91,39.19   "/><polygon points="24.236,32.506 18.952,32.506 16.036,37.902 21.318,37.902   "/><polygon points="15.34,39.19 11.653,46.015 16.923,46.031 20.622,39.19   "/><polygon points="37.459,32.506 31.959,32.506 29.042,37.902 34.543,37.902   "/><polygon points="32.021,18.106 26.74,18.088 23.259,24.533 28.547,24.533   "/><polygon points="41.766,24.533 45.214,18.15 39.731,18.131 36.27,24.533   "/><polygon points="41.07,25.821 35.572,25.821 32.655,31.218 38.154,31.218   "/><path d="M49.426,41.178h-3.905v-2.062h3.905c0.515,0,0.931-0.417,0.931-0.931s-0.416-0.931-0.931-0.931h-3.905v-2.944    c-3.132,0-5.699,2.122-6.151,4.885L28.346,39.19l-3.712,6.866l5.495,0.019l2.859-5.294h6.369c0.398,2.812,2.989,4.997,6.163,4.997    v-2.74h3.905c0.515,0,0.931-0.416,0.931-0.93C50.356,41.594,49.94,41.178,49.426,41.178z"/></g></g></g><g id="SvgjsG7561" featureKey="SbCDzn-0" transform="matrix(2.2724355980208544,0,0,2.2724355980208544,-2.8184350958508353,150.06245562414105)" fill="#000"><path d="M17.998 20 l-2.9199 0 l-0.92773 -10.635 l-3.5742 10.635 l-1.8945 0 l-3.5742 -10.635 l-0.9375 10.635 l-2.9297 0 l1.1816 -14.111 l4.1797 0 l3.0078 8.8574 l3.0469 -8.8574 l4.1797 0 z M21.06448125 20 l0 -14.111 l2.9297 0 l0 14.111 l-2.9297 0 z M35.820546875 5.888999999999999 l0 2.5781 l-3.3496 0 l0 11.533 l-2.9004 0 l0 -11.533 l-3.3691 0 l0 -2.5781 l9.6191 0 z M38.0371375 20 l0 -14.111 l2.9297 0 l0 14.111 l-2.9297 0 z M49.296903125 20.19531 c-3.0273 0 -5.3906 -1.4551 -5.8203 -4.1016 l3.0273 -0.69336 c0.19531 1.582 1.3574 2.4023 2.9102 2.4023 c1.1914 0 2.1387 -0.52734 2.1289 -1.7188 c-0.0097656 -1.3281 -1.5723 -1.748 -3.291 -2.2754 c-2.0703 -0.64453 -4.2871 -1.4063 -4.2871 -4.0039 c0 -2.627 2.1484 -4.1113 4.9805 -4.1113 c2.4805 0 4.9805 1.0059 5.5469 3.7109 l-2.832 0.70313 c-0.26367 -1.4063 -1.2109 -2.0215 -2.5391 -2.0215 c-1.1816 0 -2.1875 0.48828 -2.1875 1.6504 c0 1.084 1.3867 1.4453 2.9883 1.9238 c2.1289 0.64453 4.6484 1.4648 4.6484 4.2773 c0 2.998 -2.5098 4.2578 -5.2734 4.2578 z M70.65453125 5.888999999999999 l0 2.5781 l-3.3496 0 l0 11.533 l-2.9004 0 l0 -11.533 l-3.3691 0 l0 -2.5781 l9.6191 0 z M80.322221875 20 l-3.6719 -6.2109 l-0.84961 0 l0 6.2109 l-2.9297 0 l0 -14.111 l5.1172 0 c3.1934 0 4.541 1.8848 4.541 4.2188 c0 1.8945 -1.0742 3.125 -2.9883 3.5352 l4.248 6.3574 l-3.4668 0 z M75.800821875 8.32 l0 3.3691 l1.7285 0 c1.5625 0 2.1973 -0.66406 2.1973 -1.6797 c0 -1.0059 -0.63477 -1.6895 -2.1973 -1.6895 l-1.7285 0 z M95.381328125 20 l-1.0254 -2.9102 l-5.9277 0 l-1.0254 2.9102 l-2.998 0 l5.1953 -14.111 l3.584 0 l5.1953 14.111 l-2.998 0 z M89.287128125 14.6387 l4.209 0 l-2.0996 -5.9863 z M100.498075 20 l0 -14.111 l5.1074 0 c4.502 0 6.7285 2.832 6.7285 7.0508 c0 4.2285 -2.2266 7.0605 -6.7285 7.0605 l-5.1074 0 z M103.427775 17.4121 l2.0313 0 c2.5977 0 3.7891 -1.6211 3.7891 -4.4727 s-1.1914 -4.4727 -3.7891 -4.4727 l-2.0313 0 l0 8.9453 z M115.078153125 20 l0 -14.111 l2.9297 0 l0 14.111 l-2.9297 0 z M131.28921875 5.888999999999999 l2.9199 0 l0 14.111 l-3.3887 0 l-6.25 -10.088 l0 10.088 l-2.9199 0 l0 -14.111 l3.3496 0 l6.2891 10.029 l0 -10.029 z M143.96485625 20.19531 c-4.0723 0 -7.0703 -2.8125 -7.0703 -7.2168 c0 -4.4629 3.0664 -7.2852 7.2168 -7.2852 c2.7246 0 4.9805 1.2012 6.2109 3.3203 l-2.5684 1.3672 c-0.74219 -1.4453 -2.0703 -2.1387 -3.6426 -2.1387 c-2.4414 0 -4.2773 1.6797 -4.2773 4.668 c0 2.8809 1.7188 4.7363 4.3848 4.7363 c1.8066 0 3.4668 -0.89844 3.8672 -2.959 l-3.8574 0 l0 -2.3535 l6.6309 0 l0 7.666 l-2.3047 0 l0 -1.9531 c-0.9082 1.3379 -2.4316 2.1484 -4.5898 2.1484 z"/></g><g id="SvgjsG7562" featureKey="m0CQaI-0" transform="matrix(1.0418525013503597,0,0,1.0418525013503597,61.22900951570241,200.269812236161)" fill="#000"><path d="M5.2778 13.5852 c-2.774 -0.64318 -4.1606 -1.833 -4.1592 -3.5694 c0.0009375 -1.2772 0.44806 -2.2326 1.3414 -2.8658 s1.9433 -0.95 3.15 -0.95 c2.644 0 4.2146 0.98666 4.7116 2.96 l-1.5143 0 c-0.27142 -1.1733 -1.3372 -1.76 -3.1972 -1.76 c-1.3133 0 -2.2308 0.38954 -2.7526 1.1687 c-0.1982 0.28756 -0.29632 0.65396 -0.29438 1.0992 c-0.0036328 0.83254 0.44954 1.4776 1.3595 1.9351 c0.42812 0.2272 1.3347 0.5202 2.7198 0.87896 s2.39 0.75912 3.0146 1.2011 c0.8687 0.61138 1.304 1.4737 1.306 2.587 c-0.0019531 1.3667 -0.543 2.4006 -1.6232 3.1016 c-0.9065 0.59228 -2.027 0.88844 -3.3618 0.88844 c-3.012 0 -4.758 -1.1467 -5.238 -3.44 l1.6551 0 c0.2566 1.44 1.4513 2.16 3.584 2.16 c1.5206 0 2.5834 -0.42278 3.1882 -1.2683 c0.23506 -0.3278 0.3526 -0.77502 0.3526 -1.3417 s-0.21898 -1.0272 -0.65696 -1.3817 c-0.62872 -0.51292 -1.8238 -0.9806 -3.5852 -1.403 z M31.976000000000003 15.5 c0 1.4729 -0.48002 2.633 -1.44 3.48 c-0.90666 0.8 -2.1134 1.2 -3.62 1.2 c-1.52 0 -2.7334 -0.4 -3.64 -1.2 c-0.96 -0.84704 -1.44 -2.007 -1.44 -3.48 l0 -9.1 l1.4 0 l0 9.3 c0 1.022 0.37 1.8086 1.11 2.36 c0.64422 0.48 1.5009 0.72 2.57 0.72 c1.6607 0 2.7806 -0.56 3.36 -1.68 c0.2 -0.38666 0.3 -0.85332 0.3 -1.4 l0 -9.3 l1.4 0 l0 9.1 z M45.232000000000006 9.98 l0 10.02 l-1.4 0 l0 -14.46 l7.64 10.86 l0 -10 l1.4 0 l0 14.44 z M66.42800000000001 9.98 l0 10.02 l-1.4 0 l0 -14.46 l7.64 10.86 l0 -10 l1.4 0 l0 14.44 z M91.48400000000001 13.599599999999999 l0 6.4005 l-1.4 0 l0 -6.3971 l-5.16 -7.2028 l1.8 0 l4.06 5.82 l4.06 -5.82 l1.78 0 z M120.936 7.66 l0 -1.3 l3.3 0 l1.4 0 l3.3 0 l0 1.3 l-3.3 0 l0 12.3 l-1.4 0 l0 -12.3 l-3.3 0 z M141.39200000000002 20 l-1.4 0 l0 -13.6 l1.4 0 l0 13.6 z M166.08800000000002 20 l-2.12 -9.68 l-4.08 10.48 l-4.1 -10.48 l-2.1 9.68 l-1.44 0 l3.18 -14.5 l4.46 11.64 l4.46 -11.64 l3.16 14.5 l-1.42 0 z M186.44400000000005 20 l-8.08 0 l0 -13.6 l8.08 0 l0 1.3 l-6.68 0 l0 4.84 l6.48 0 l0 1.32 l-6.48 0 l0 4.84 l6.68 0 l0 1.3 z M202.37780000000004 13.5852 c-2.774 -0.64318 -4.1606 -1.833 -4.1592 -3.5694 c0.0009375 -1.2772 0.44806 -2.2326 1.3414 -2.8658 s1.9433 -0.95 3.15 -0.95 c2.644 0 4.2146 0.98666 4.7116 2.96 l-1.5143 0 c-0.27142 -1.1733 -1.3372 -1.76 -3.1972 -1.76 c-1.3133 0 -2.2308 0.38954 -2.7526 1.1687 c-0.1982 0.28756 -0.29632 0.65396 -0.29438 1.0992 c-0.0036328 0.83254 0.44954 1.4776 1.3595 1.9351 c0.42812 0.2272 1.3347 0.5202 2.7198 0.87896 s2.39 0.75912 3.0146 1.2011 c0.8687 0.61138 1.304 1.4737 1.306 2.587 c-0.0019531 1.3667 -0.543 2.4006 -1.6232 3.1016 c-0.9065 0.59228 -2.027 0.88844 -3.3618 0.88844 c-3.012 0 -4.758 -1.1467 -5.238 -3.44 l1.6551 0 c0.2566 1.44 1.4513 2.16 3.584 2.16 c1.5206 0 2.5834 -0.42278 3.1882 -1.2683 c0.23506 -0.3278 0.3526 -0.77502 0.3526 -1.3417 s-0.21898 -1.0272 -0.65696 -1.3817 c-0.62872 -0.51292 -1.8238 -0.9806 -3.5852 -1.403 z"/></g>
			</g>
		</svg>
	