<?xml version="1.0" encoding="UTF-8"?>
<svg xmlns="http://www.w3.org/2000/svg" xmlns:xlink="http://www.w3.org/1999/xlink" width="350px" height="260px" viewBox="0 0 349 260" version="1.1">
<defs>
<linearGradient id="linear0" gradientUnits="userSpaceOnUse" x1="0" y1="0" x2="1" y2="0" gradientTransform="matrix(73.953125,0,0,74.09375,95.183594,15.890625)">
<stop offset="0" style="stop-color:rgb(56.078431%,36.862745%,14.509804%);stop-opacity:1;"/>
<stop offset="0.5" style="stop-color:rgb(98.431373%,95.686275%,63.137255%);stop-opacity:1;"/>
<stop offset="1" style="stop-color:rgb(56.078431%,36.862745%,14.509804%);stop-opacity:1;"/>
</linearGradient>
<linearGradient id="linear1" gradientUnits="userSpaceOnUse" x1="0" y1="0" x2="1" y2="0" gradientTransform="matrix(25.835938,0,0,17.035156,157.078125,85.757812)">
<stop offset="0" style="stop-color:rgb(56.078431%,36.862745%,14.509804%);stop-opacity:1;"/>
<stop offset="0.5" style="stop-color:rgb(98.431373%,95.686275%,63.137255%);stop-opacity:1;"/>
<stop offset="1" style="stop-color:rgb(56.078431%,36.862745%,14.509804%);stop-opacity:1;"/>
</linearGradient>
<linearGradient id="linear2" gradientUnits="userSpaceOnUse" x1="0" y1="0" x2="1" y2="0" gradientTransform="matrix(26.210937,0,0,20.273438,189.625,61.421875)">
<stop offset="0" style="stop-color:rgb(56.078431%,36.862745%,14.509804%);stop-opacity:1;"/>
<stop offset="0.5" style="stop-color:rgb(98.431373%,95.686275%,63.137255%);stop-opacity:1;"/>
<stop offset="1" style="stop-color:rgb(56.078431%,36.862745%,14.509804%);stop-opacity:1;"/>
</linearGradient>
<linearGradient id="linear3" gradientUnits="userSpaceOnUse" x1="0" y1="0" x2="1" y2="0" gradientTransform="matrix(24.488281,0,0,17.035156,178.242188,85.757812)">
<stop offset="0" style="stop-color:rgb(56.078431%,36.862745%,14.509804%);stop-opacity:1;"/>
<stop offset="0.5" style="stop-color:rgb(98.431373%,95.686275%,63.137255%);stop-opacity:1;"/>
<stop offset="1" style="stop-color:rgb(56.078431%,36.862745%,14.509804%);stop-opacity:1;"/>
</linearGradient>
<linearGradient id="linear4" gradientUnits="userSpaceOnUse" x1="0" y1="0" x2="1" y2="0" gradientTransform="matrix(24.480469,0,0,17.03125,166.859375,106.855469)">
<stop offset="0" style="stop-color:rgb(56.078431%,36.862745%,14.509804%);stop-opacity:1;"/>
<stop offset="0.5" style="stop-color:rgb(98.431373%,95.686275%,63.137255%);stop-opacity:1;"/>
<stop offset="1" style="stop-color:rgb(56.078431%,36.862745%,14.509804%);stop-opacity:1;"/>
</linearGradient>
<linearGradient id="linear5" gradientUnits="userSpaceOnUse" x1="0" y1="0" x2="1" y2="0" gradientTransform="matrix(26.949219,0,0,21.65625,153.003906,127.949219)">
<stop offset="0" style="stop-color:rgb(56.078431%,36.862745%,14.509804%);stop-opacity:1;"/>
<stop offset="0.5" style="stop-color:rgb(98.431373%,95.686275%,63.137255%);stop-opacity:1;"/>
<stop offset="1" style="stop-color:rgb(56.078431%,36.862745%,14.509804%);stop-opacity:1;"/>
</linearGradient>
<linearGradient id="linear6" gradientUnits="userSpaceOnUse" x1="0" y1="0" x2="1" y2="0" gradientTransform="matrix(25.832031,0,0,17.03125,145.699219,106.855469)">
<stop offset="0" style="stop-color:rgb(56.078431%,36.862745%,14.509804%);stop-opacity:1;"/>
<stop offset="0.5" style="stop-color:rgb(98.431373%,95.686275%,63.137255%);stop-opacity:1;"/>
<stop offset="1" style="stop-color:rgb(56.078431%,36.862745%,14.509804%);stop-opacity:1;"/>
</linearGradient>
<linearGradient id="linear7" gradientUnits="userSpaceOnUse" x1="0" y1="0" x2="1" y2="0" gradientTransform="matrix(28.253906,0,0,21.589844,131.890625,127.949219)">
<stop offset="0" style="stop-color:rgb(56.078431%,36.862745%,14.509804%);stop-opacity:1;"/>
<stop offset="0.5" style="stop-color:rgb(98.431373%,95.686275%,63.137255%);stop-opacity:1;"/>
<stop offset="1" style="stop-color:rgb(56.078431%,36.862745%,14.509804%);stop-opacity:1;"/>
</linearGradient>
<linearGradient id="linear8" gradientUnits="userSpaceOnUse" x1="0" y1="0" x2="1" y2="0" gradientTransform="matrix(26.515625,0,0,17.03125,186.671875,106.855469)">
<stop offset="0" style="stop-color:rgb(56.078431%,36.862745%,14.509804%);stop-opacity:1;"/>
<stop offset="0.5" style="stop-color:rgb(98.431373%,95.686275%,63.137255%);stop-opacity:1;"/>
<stop offset="1" style="stop-color:rgb(56.078431%,36.862745%,14.509804%);stop-opacity:1;"/>
</linearGradient>
<linearGradient id="linear9" gradientUnits="userSpaceOnUse" x1="0" y1="0" x2="1" y2="0" gradientTransform="matrix(27.601562,0,0,20.339844,168.453125,61.355469)">
<stop offset="0" style="stop-color:rgb(56.078431%,36.862745%,14.509804%);stop-opacity:1;"/>
<stop offset="0.5" style="stop-color:rgb(98.431373%,95.686275%,63.137255%);stop-opacity:1;"/>
<stop offset="1" style="stop-color:rgb(56.078431%,36.862745%,14.509804%);stop-opacity:1;"/>
</linearGradient>
<linearGradient id="linear10" gradientUnits="userSpaceOnUse" x1="0" y1="0" x2="1" y2="0" gradientTransform="matrix(28.175781,0,0,20.207031,209.441406,61.488281)">
<stop offset="0" style="stop-color:rgb(56.078431%,36.862745%,14.509804%);stop-opacity:1;"/>
<stop offset="0.5" style="stop-color:rgb(98.431373%,95.686275%,63.137255%);stop-opacity:1;"/>
<stop offset="1" style="stop-color:rgb(56.078431%,36.862745%,14.509804%);stop-opacity:1;"/>
</linearGradient>
<linearGradient id="linear11" gradientUnits="userSpaceOnUse" x1="0" y1="0" x2="1" y2="0" gradientTransform="matrix(26.511719,0,0,17.035156,198.050781,85.757812)">
<stop offset="0" style="stop-color:rgb(56.078431%,36.862745%,14.509804%);stop-opacity:1;"/>
<stop offset="0.5" style="stop-color:rgb(98.431373%,95.686275%,63.137255%);stop-opacity:1;"/>
<stop offset="1" style="stop-color:rgb(56.078431%,36.862745%,14.509804%);stop-opacity:1;"/>
</linearGradient>
<linearGradient id="linear12" gradientUnits="userSpaceOnUse" x1="0" y1="0" x2="1" y2="0" gradientTransform="matrix(81.03125,0,0,37.128906,172.785156,112.550781)">
<stop offset="0" style="stop-color:rgb(56.078431%,36.862745%,14.509804%);stop-opacity:1;"/>
<stop offset="0.5" style="stop-color:rgb(98.431373%,95.686275%,63.137255%);stop-opacity:1;"/>
<stop offset="1" style="stop-color:rgb(56.078431%,36.862745%,14.509804%);stop-opacity:1;"/>
</linearGradient>
<linearGradient id="linear13" gradientUnits="userSpaceOnUse" x1="0" y1="0" x2="1" y2="0" gradientTransform="matrix(317.273438,0,0,26.890625,15.863281,181.171875)">
<stop offset="0" style="stop-color:rgb(56.078431%,36.862745%,14.509804%);stop-opacity:1;"/>
<stop offset="0.5" style="stop-color:rgb(98.431373%,95.686275%,63.137255%);stop-opacity:1;"/>
<stop offset="1" style="stop-color:rgb(56.078431%,36.862745%,14.509804%);stop-opacity:1;"/>
</linearGradient>
<linearGradient id="linear14" gradientUnits="userSpaceOnUse" x1="0" y1="0" x2="1" y2="0" gradientTransform="matrix(253.773438,0,0,20.003906,47.589844,224.082031)">
<stop offset="0" style="stop-color:rgb(56.078431%,36.862745%,14.509804%);stop-opacity:1;"/>
<stop offset="0.5" style="stop-color:rgb(98.431373%,95.686275%,63.137255%);stop-opacity:1;"/>
<stop offset="1" style="stop-color:rgb(56.078431%,36.862745%,14.509804%);stop-opacity:1;"/>
</linearGradient>
</defs>
<g id="surface1">
<path style=" stroke:none;fill-rule:nonzero;fill:url(#linear0);" d="M 169.136719 55.949219 L 169.136719 49.917969 L 154.789062 49.917969 C 154.316406 45.820312 152.738281 42.066406 150.386719 38.941406 L 160.4375 28.863281 L 156.183594 24.601562 L 146.160156 34.640625 C 143.039062 32.214844 139.277344 30.59375 135.171875 30.074219 L 135.171875 15.890625 L 129.148438 15.890625 L 129.148438 30.132812 C 125.085938 30.710938 121.378906 32.355469 118.3125 34.800781 L 108.140625 24.605469 L 103.882812 28.875 L 114.140625 39.140625 C 111.867188 42.234375 110.351562 45.910156 109.886719 49.917969 L 95.183594 49.917969 L 95.183594 55.949219 L 110.011719 55.949219 C 110.605469 59.839844 112.179688 63.402344 114.484375 66.378906 L 103.886719 76.996094 L 108.140625 81.265625 L 118.769531 70.613281 C 121.75 72.855469 125.292969 74.386719 129.152344 74.933594 L 129.152344 89.984375 L 135.175781 89.984375 L 135.175781 74.992188 C 139.082031 74.496094 142.664062 73 145.699219 70.769531 L 156.183594 81.269531 L 160.4375 77.003906 L 150.046875 66.589844 C 152.4375 63.570312 154.0625 59.933594 154.667969 55.953125 L 169.136719 55.953125 Z M 132.296875 69.078125 C 123.15625 69.078125 115.742188 61.65625 115.742188 52.488281 C 115.742188 43.332031 123.152344 35.90625 132.296875 35.90625 C 141.441406 35.90625 148.851562 43.332031 148.851562 52.488281 C 148.855469 61.65625 141.441406 69.078125 132.296875 69.078125 Z M 132.296875 69.078125 "/>
<path style=" stroke:none;fill-rule:nonzero;fill:url(#linear1);" d="M 182.914062 85.757812 L 166.261719 85.757812 L 157.078125 102.792969 L 173.726562 102.792969 Z M 182.914062 85.757812 "/>
<path style=" stroke:none;fill-rule:nonzero;fill:url(#linear2);" d="M 204.921875 81.695312 L 215.835938 61.476562 L 200.558594 61.421875 L 189.625 81.695312 Z M 204.921875 81.695312 "/>
<path style=" stroke:none;fill-rule:nonzero;fill:url(#linear3);" d="M 202.730469 85.757812 L 187.429688 85.757812 L 178.242188 102.792969 L 193.542969 102.792969 Z M 202.730469 85.757812 "/>
<path style=" stroke:none;fill-rule:nonzero;fill:url(#linear4);" d="M 166.859375 123.886719 L 182.148438 123.886719 L 191.339844 106.855469 L 176.046875 106.855469 Z M 166.859375 123.886719 "/>
<path style=" stroke:none;fill-rule:nonzero;fill:url(#linear5);" d="M 164.664062 127.949219 L 153.003906 149.554688 L 168.269531 149.605469 L 179.953125 127.949219 Z M 164.664062 127.949219 "/>
<path style=" stroke:none;fill-rule:nonzero;fill:url(#linear6);" d="M 171.53125 106.855469 L 154.886719 106.855469 L 145.699219 123.886719 L 162.339844 123.886719 Z M 171.53125 106.855469 "/>
<path style=" stroke:none;fill-rule:nonzero;fill:url(#linear7);" d="M 143.507812 127.949219 L 131.890625 149.488281 L 148.492188 149.539062 L 160.144531 127.949219 Z M 143.507812 127.949219 "/>
<path style=" stroke:none;fill-rule:nonzero;fill:url(#linear8);" d="M 213.1875 106.855469 L 195.859375 106.855469 L 186.671875 123.886719 L 204 123.886719 Z M 213.1875 106.855469 "/>
<path style=" stroke:none;fill-rule:nonzero;fill:url(#linear9);" d="M 196.054688 61.410156 L 179.417969 61.355469 L 168.453125 81.695312 L 185.113281 81.695312 Z M 196.054688 61.410156 "/>
<path style=" stroke:none;fill-rule:nonzero;fill:url(#linear10);" d="M 226.753906 81.695312 L 237.617188 61.550781 L 220.34375 61.488281 L 209.441406 81.695312 Z M 226.753906 81.695312 "/>
<path style=" stroke:none;fill-rule:nonzero;fill:url(#linear11);" d="M 224.5625 85.757812 L 207.242188 85.757812 L 198.050781 102.792969 L 215.375 102.792969 Z M 224.5625 85.757812 "/>
<path style=" stroke:none;fill-rule:nonzero;fill:url(#linear12);" d="M 250.886719 134.226562 L 238.582031 134.226562 L 238.582031 127.71875 L 250.886719 127.71875 C 252.507812 127.71875 253.816406 126.402344 253.816406 124.777344 C 253.816406 123.15625 252.507812 121.839844 250.886719 121.839844 L 238.582031 121.839844 L 238.582031 112.550781 C 228.71875 112.550781 220.628906 119.246094 219.207031 127.964844 L 184.476562 127.949219 L 172.785156 149.621094 L 190.09375 149.679688 L 199.101562 132.972656 L 219.164062 132.972656 C 220.417969 141.847656 228.582031 148.742188 238.582031 148.742188 L 238.582031 140.09375 L 250.882812 140.09375 C 252.503906 140.09375 253.816406 138.78125 253.816406 137.160156 C 253.816406 135.539062 252.503906 134.226562 250.886719 134.226562 Z M 250.886719 134.226562 "/>
<path style=" stroke:none;fill-rule:nonzero;fill:url(#linear13);" d="M 46.878906 207.703125 L 41.476562 207.703125 L 39.757812 187.980469 L 33.144531 207.703125 L 29.636719 207.703125 L 23.019531 187.980469 L 21.285156 207.703125 L 15.863281 207.703125 L 18.050781 181.535156 L 25.785156 181.535156 L 31.355469 197.960938 L 36.992188 181.535156 L 44.730469 181.535156 Z M 55.917969 207.703125 L 55.917969 181.535156 L 61.339844 181.535156 L 61.339844 207.703125 Z M 86.59375 181.535156 L 86.59375 186.316406 L 80.390625 186.316406 L 80.390625 207.699219 L 75.023438 207.699219 L 75.023438 186.316406 L 68.789062 186.316406 L 68.789062 181.535156 Z M 94.054688 207.703125 L 94.054688 181.535156 L 99.480469 181.535156 L 99.480469 207.703125 Z M 118.257812 208.0625 C 112.65625 208.0625 108.28125 205.367188 107.484375 200.457031 L 113.089844 199.171875 C 113.449219 202.105469 115.601562 203.628906 118.476562 203.628906 C 120.679688 203.628906 122.433594 202.648438 122.414062 200.441406 C 122.398438 197.976562 119.503906 197.199219 116.324219 196.222656 C 112.492188 195.027344 108.390625 193.613281 108.390625 188.796875 C 108.390625 183.925781 112.367188 181.171875 117.609375 181.171875 C 122.199219 181.171875 126.824219 183.039062 127.875 188.054688 L 122.632812 189.359375 C 122.144531 186.75 120.390625 185.609375 117.933594 185.609375 C 115.746094 185.609375 113.882812 186.515625 113.882812 188.671875 C 113.882812 190.679688 116.453125 191.351562 119.414062 192.238281 C 123.355469 193.433594 128.019531 194.953125 128.019531 200.167969 C 128.019531 205.726562 123.375 208.0625 118.257812 208.0625 Z M 164.515625 181.535156 L 164.515625 186.316406 L 158.3125 186.316406 L 158.3125 207.699219 L 152.945312 207.699219 L 152.945312 186.316406 L 146.710938 186.316406 L 146.710938 181.535156 Z M 185.769531 207.703125 L 178.972656 196.183594 L 177.402344 196.183594 L 177.402344 207.703125 L 171.980469 207.703125 L 171.980469 181.535156 L 181.449219 181.535156 C 187.359375 181.535156 189.855469 185.03125 189.855469 189.359375 C 189.855469 192.871094 187.867188 195.152344 184.324219 195.914062 L 192.1875 207.703125 Z M 177.402344 186.046875 L 177.402344 192.292969 L 180.601562 192.292969 C 183.492188 192.292969 184.667969 191.0625 184.667969 189.175781 C 184.667969 187.3125 183.492188 186.046875 180.601562 186.046875 Z M 217.003906 207.703125 L 215.105469 202.304688 L 204.132812 202.304688 L 202.238281 207.703125 L 196.6875 207.703125 L 206.304688 181.535156 L 212.9375 181.535156 L 222.554688 207.703125 Z M 205.726562 197.761719 L 213.515625 197.761719 L 209.628906 186.660156 Z M 229.835938 207.703125 L 229.835938 181.535156 L 239.289062 181.535156 C 247.621094 181.535156 251.742188 186.785156 251.742188 194.609375 C 251.742188 202.449219 247.621094 207.703125 239.289062 207.703125 Z M 235.257812 202.902344 L 239.019531 202.902344 C 243.828125 202.902344 246.03125 199.898438 246.03125 194.609375 C 246.03125 189.320312 243.828125 186.316406 239.019531 186.316406 L 235.257812 186.316406 Z M 260.183594 207.703125 L 260.183594 181.535156 L 265.609375 181.535156 L 265.609375 207.703125 Z M 293.550781 181.535156 L 298.957031 181.535156 L 298.957031 207.703125 L 292.683594 207.703125 L 281.117188 188.996094 L 281.117188 207.703125 L 275.710938 207.703125 L 275.710938 181.535156 L 281.910156 181.535156 L 293.550781 200.132812 Z M 320.375 208.0625 C 312.835938 208.0625 307.289062 202.847656 307.289062 194.683594 C 307.289062 186.40625 312.964844 181.171875 320.644531 181.171875 C 325.6875 181.171875 329.863281 183.402344 332.140625 187.332031 L 327.386719 189.867188 C 326.015625 187.183594 323.554688 185.898438 320.644531 185.898438 C 316.128906 185.898438 312.730469 189.015625 312.730469 194.554688 C 312.730469 199.898438 315.910156 203.335938 320.84375 203.335938 C 324.1875 203.335938 327.261719 201.671875 328.003906 197.851562 L 320.863281 197.851562 L 320.863281 193.488281 L 333.136719 193.488281 L 333.136719 207.703125 L 328.871094 207.703125 L 328.871094 204.082031 C 327.191406 206.5625 324.371094 208.0625 320.375 208.0625 Z M 320.375 208.0625 "/>
<path style=" stroke:none;fill-rule:nonzero;fill:url(#linear14);" d="M 48.242188 241.050781 C 47.527344 239.714844 49.351562 238.734375 50.195312 240.074219 C 50.621094 240.757812 51.890625 241.933594 53.910156 241.933594 C 54.757812 241.933594 56.875 241.3125 57.167969 238.898438 C 57.363281 237.429688 55.960938 235.992188 53.550781 234.785156 C 50.164062 233.1875 47.589844 231.785156 47.589844 228.976562 C 47.589844 225.648438 50.390625 224.082031 53.390625 224.082031 C 56.09375 224.082031 57.589844 225.746094 58.113281 226.597656 C 58.863281 227.804688 57.234375 228.976562 56.320312 227.804688 C 55.863281 227.214844 54.984375 226.238281 53.390625 226.238281 C 51.597656 226.238281 49.742188 227.085938 49.742188 228.976562 C 49.742188 230.480469 51.402344 231.328125 53.878906 232.503906 C 56.777344 233.9375 59.804688 235.339844 59.351562 239.160156 C 58.992188 242.160156 56.710938 244.085938 53.910156 244.085938 C 51.792969 244.085938 49.1875 242.945312 48.242188 241.050781 Z M 73.160156 238.082031 L 73.160156 225.257812 C 73.160156 224.574219 73.714844 224.214844 74.234375 224.214844 C 74.789062 224.214844 75.308594 224.574219 75.308594 225.257812 L 75.308594 238.082031 C 75.308594 240.433594 76.90625 241.835938 79.121094 241.835938 L 79.9375 241.835938 C 82.214844 241.835938 83.78125 240.234375 83.78125 238.082031 L 83.78125 225.257812 C 83.78125 224.574219 84.300781 224.214844 84.855469 224.214844 C 85.375 224.214844 85.929688 224.574219 85.929688 225.257812 L 85.929688 238.082031 C 85.929688 241.445312 83.550781 244.023438 79.9375 244.023438 L 79.121094 244.023438 C 75.503906 244.023438 73.160156 241.507812 73.160156 238.082031 Z M 111.597656 225.257812 L 111.597656 242.8125 C 111.597656 243.5 111.074219 243.859375 110.554688 243.859375 C 110.164062 243.859375 109.640625 243.566406 109.414062 243.140625 C 106.972656 238.34375 105.148438 234.65625 102.703125 229.828125 L 102.703125 242.8125 C 102.703125 243.5 102.183594 243.859375 101.628906 243.859375 C 101.109375 243.859375 100.554688 243.5 100.554688 242.8125 L 100.554688 225.257812 C 100.554688 224.117188 102.183594 224.050781 102.539062 224.734375 L 109.414062 238.34375 L 109.414062 225.257812 C 109.414062 224.574219 109.933594 224.214844 110.488281 224.214844 C 111.042969 224.214844 111.597656 224.574219 111.597656 225.257812 Z M 137.65625 225.257812 L 137.65625 242.8125 C 137.65625 243.5 137.132812 243.859375 136.613281 243.859375 C 136.222656 243.859375 135.699219 243.566406 135.472656 243.140625 C 133.027344 238.34375 131.203125 234.65625 128.761719 229.828125 L 128.761719 242.8125 C 128.761719 243.5 128.242188 243.859375 127.6875 243.859375 C 127.164062 243.859375 126.613281 243.5 126.613281 242.8125 L 126.613281 225.257812 C 126.613281 224.117188 128.242188 224.050781 128.597656 224.734375 L 135.472656 238.34375 L 135.472656 225.257812 C 135.472656 224.574219 135.992188 224.214844 136.546875 224.214844 C 137.101562 224.214844 137.65625 224.574219 137.65625 225.257812 Z M 161.953125 225.746094 L 157.914062 234.132812 L 157.914062 242.8125 C 157.914062 243.53125 157.394531 243.859375 156.871094 243.859375 C 156.316406 243.859375 155.796875 243.5 155.796875 242.8125 L 155.796875 234.132812 L 151.660156 225.78125 C 150.976562 224.34375 152.964844 223.496094 153.648438 224.867188 L 156.871094 231.328125 L 159.964844 224.898438 C 160.683594 223.398438 162.636719 224.34375 161.953125 225.746094 Z M 194.328125 224.214844 L 204.167969 224.214844 C 204.851562 224.214844 205.175781 224.769531 205.175781 225.324219 C 205.175781 225.878906 204.851562 226.398438 204.167969 226.398438 L 200.453125 226.398438 L 200.453125 242.8125 C 200.453125 243.5 199.898438 243.859375 199.347656 243.859375 C 198.792969 243.859375 198.269531 243.5 198.269531 242.8125 L 198.269531 226.398438 L 194.328125 226.398438 C 193.644531 226.398438 193.320312 225.878906 193.320312 225.324219 C 193.320312 224.769531 193.644531 224.214844 194.328125 224.214844 Z M 218.792969 242.847656 L 218.792969 225.257812 C 218.792969 224.574219 219.3125 224.214844 219.835938 224.214844 C 220.355469 224.214844 220.910156 224.574219 220.910156 225.257812 L 220.910156 242.847656 C 220.910156 244.25 218.792969 244.25 218.792969 242.847656 Z M 249.769531 242.8125 L 249.769531 228.261719 L 244.589844 242.945312 C 244.296875 243.761719 243.222656 243.957031 242.894531 242.945312 L 237.878906 228.261719 L 237.878906 242.8125 C 237.878906 243.5 237.359375 243.859375 236.804688 243.859375 C 236.25 243.859375 235.695312 243.5 235.695312 242.8125 L 235.695312 225.289062 C 235.695312 224.671875 236.152344 224.214844 236.804688 224.214844 L 237.847656 224.214844 C 238.5625 224.214844 238.953125 224.734375 239.117188 225.226562 C 240.679688 229.890625 242.113281 234.035156 243.710938 238.734375 L 248.433594 225.128906 C 248.597656 224.671875 248.890625 224.214844 249.574219 224.214844 L 250.875 224.214844 C 251.820312 224.214844 251.949219 224.734375 251.949219 225.257812 L 251.949219 242.8125 C 251.949219 243.5 251.398438 243.859375 250.84375 243.859375 C 250.289062 243.859375 249.769531 243.5 249.769531 242.8125 Z M 266.804688 242.714844 L 266.804688 225.355469 C 266.804688 224.605469 267.390625 224.214844 267.945312 224.214844 L 275.4375 224.214844 C 276.152344 224.214844 276.511719 224.734375 276.511719 225.289062 C 276.511719 225.84375 276.152344 226.398438 275.4375 226.398438 L 268.984375 226.398438 L 268.984375 232.730469 L 274.101562 232.730469 C 274.847656 232.730469 275.207031 233.253906 275.207031 233.808594 C 275.207031 234.363281 274.816406 234.949219 274.101562 234.949219 L 268.984375 234.949219 L 268.984375 241.703125 L 275.4375 241.703125 C 276.121094 241.703125 276.476562 242.257812 276.476562 242.78125 C 276.476562 243.335938 276.121094 243.859375 275.4375 243.859375 L 267.945312 243.859375 C 267.390625 243.859375 266.804688 243.664062 266.804688 242.714844 Z M 290.253906 241.050781 C 289.539062 239.714844 291.363281 238.734375 292.210938 240.074219 C 292.632812 240.757812 293.902344 241.933594 295.921875 241.933594 C 296.769531 241.933594 298.886719 241.3125 299.179688 238.898438 C 299.375 237.429688 297.976562 235.992188 295.566406 234.785156 C 292.175781 233.1875 289.605469 231.785156 289.605469 228.976562 C 289.605469 225.648438 292.40625 224.082031 295.402344 224.082031 C 298.105469 224.082031 299.605469 225.746094 300.125 226.597656 C 300.875 227.804688 299.246094 228.976562 298.335938 227.804688 C 297.878906 227.214844 297 226.238281 295.402344 226.238281 C 293.609375 226.238281 291.753906 227.085938 291.753906 228.976562 C 291.753906 230.480469 293.414062 231.328125 295.890625 232.503906 C 298.789062 233.9375 301.820312 235.339844 301.363281 239.160156 C 301.003906 242.160156 298.726562 244.085938 295.921875 244.085938 C 293.804688 244.085938 291.199219 242.945312 290.253906 241.050781 Z M 290.253906 241.050781 "/>
</g>
</svg>
