
        <svg xmlns="http://www.w3.org/2000/svg" xmlns:xlink="http://www.w3.org/1999/xlink" version="1.1" width="3300" height="2453.8052901046112" viewBox="0 0 3300 2453.8052901046112">
			
			<g transform="scale(15) translate(10, 10)">
				<defs id="SvgjsDefs4103"><linearGradient id="SvgjsLinearGradient4110"><stop id="SvgjsStop4111" stop-color="#8f5e25" offset="0"/><stop id="SvgjsStop4112" stop-color="#fbf4a1" offset="0.5"/><stop id="SvgjsStop4113" stop-color="#8f5e25" offset="1"/></linearGradient><linearGradient id="SvgjsLinearGradient4114"><stop id="SvgjsStop4115" stop-color="#8f5e25" offset="0"/><stop id="SvgjsStop4116" stop-color="#fbf4a1" offset="0.5"/><stop id="SvgjsStop4117" stop-color="#8f5e25" offset="1"/></linearGradient><linearGradient id="SvgjsLinearGradient4118"><stop id="SvgjsStop4119" stop-color="#8f5e25" offset="0"/><stop id="SvgjsStop4120" stop-color="#fbf4a1" offset="0.5"/><stop id="SvgjsStop4121" stop-color="#8f5e25" offset="1"/></linearGradient></defs><g id="SvgjsG4104" featureKey="symbolFeature-0" transform="matrix(1.985821297748581,0,0,1.985821297748581,50,-7.313780013840087)" fill="#000"><g xmlns="http://www.w3.org/2000/svg"><path d="M23.476,16.375v-1.911h-4.555c-0.15-1.298-0.651-2.487-1.397-3.478l3.19-3.193l-1.35-1.35l-3.182,3.18   c-0.99-0.768-2.185-1.282-3.488-1.446V3.683h-1.912v4.512c-1.289,0.183-2.466,0.704-3.44,1.479L4.114,6.444L2.762,7.797   l3.256,3.253c-0.722,0.98-1.203,2.145-1.35,3.414H0v1.911h4.708c0.188,1.233,0.688,2.362,1.419,3.305l-3.364,3.365l1.351,1.352   l3.374-3.375c0.946,0.711,2.071,1.195,3.295,1.369v4.769h1.912v-4.751c1.24-0.157,2.378-0.631,3.341-1.338l3.328,3.328l1.351-1.352   l-3.299-3.3c0.759-0.957,1.275-2.109,1.467-3.37H23.476L23.476,16.375z M11.782,20.536c-2.902,0-5.255-2.352-5.255-5.257   c0-2.901,2.352-5.254,5.255-5.254c2.903,0,5.255,2.353,5.255,5.254C17.038,18.184,14.685,20.536,11.782,20.536z"/></g><g xmlns="http://www.w3.org/2000/svg"><g><polygon points="27.85,25.821 22.563,25.821 19.648,31.218 24.933,31.218   "/><polygon points="34.836,24.533 38.3,18.127 33.451,18.11 29.98,24.533   "/><polygon points="34.14,25.821 29.283,25.821 26.366,31.218 31.223,31.218   "/><polygon points="22.753,37.902 27.607,37.902 30.524,32.506 25.669,32.506   "/><polygon points="22.056,39.19 18.355,46.036 23.201,46.052 26.91,39.19   "/><polygon points="24.236,32.506 18.952,32.506 16.036,37.902 21.318,37.902   "/><polygon points="15.34,39.19 11.653,46.015 16.923,46.031 20.622,39.19   "/><polygon points="37.459,32.506 31.959,32.506 29.042,37.902 34.543,37.902   "/><polygon points="32.021,18.106 26.74,18.088 23.259,24.533 28.547,24.533   "/><polygon points="41.766,24.533 45.214,18.15 39.731,18.131 36.27,24.533   "/><polygon points="41.07,25.821 35.572,25.821 32.655,31.218 38.154,31.218   "/><path d="M49.426,41.178h-3.905v-2.062h3.905c0.515,0,0.931-0.417,0.931-0.931s-0.416-0.931-0.931-0.931h-3.905v-2.944    c-3.132,0-5.699,2.122-6.151,4.885L28.346,39.19l-3.712,6.866l5.495,0.019l2.859-5.294h6.369c0.398,2.812,2.989,4.997,6.163,4.997    v-2.74h3.905c0.515,0,0.931-0.416,0.931-0.93C50.356,41.594,49.94,41.178,49.426,41.178z"/></g></g></g><g id="SvgjsG4105" featureKey="nameFeature-0" transform="matrix(0.5833758014229221,0,0,0.5833758014229221,-1.4470053876984226,97.35731612059008)" fill="#000"><path d="M35.996 40 l-5.8398 0 l-1.8555 -21.27 l-7.1484 21.27 l-3.7891 0 l-7.1484 -21.27 l-1.875 21.27 l-5.8594 0 l2.3633 -28.223 l8.3594 0 l6.0156 17.715 l6.0938 -17.715 l8.3594 0 z M45.761675 40 l0 -28.223 l5.8594 0 l0 28.223 l-5.8594 0 z M78.90671875 11.777000000000001 l0 5.1563 l-6.6992 0 l0 23.066 l-5.8008 0 l0 -23.066 l-6.7383 0 l0 -5.1563 l19.238 0 z M86.9726125 40 l0 -28.223 l5.8594 0 l0 28.223 l-5.8594 0 z M113.12465625 40.39063 c-6.0547 0 -10.781 -2.9102 -11.641 -8.2031 l6.0547 -1.3867 c0.39063 3.1641 2.7148 4.8047 5.8203 4.8047 c2.3828 0 4.2773 -1.0547 4.2578 -3.4375 c-0.019531 -2.6563 -3.1445 -3.4961 -6.582 -4.5508 c-4.1406 -1.2891 -8.5742 -2.8125 -8.5742 -8.0078 c0 -5.2539 4.2969 -8.2227 9.9609 -8.2227 c4.9609 0 9.9609 2.0117 11.094 7.4219 l-5.6641 1.4063 c-0.52734 -2.8125 -2.4219 -4.043 -5.0781 -4.043 c-2.3633 0 -4.375 0.97656 -4.375 3.3008 c0 2.168 2.7734 2.8906 5.9766 3.8477 c4.2578 1.2891 9.2969 2.9297 9.2969 8.5547 c0 5.9961 -5.0195 8.5156 -10.547 8.5156 z M163.1059375 11.777000000000001 l0 5.1563 l-6.6992 0 l0 23.066 l-5.8008 0 l0 -23.066 l-6.7383 0 l0 -5.1563 l19.238 0 z M186.07453125 40 l-7.3438 -12.422 l-1.6992 0 l0 12.422 l-5.8594 0 l0 -28.223 l10.234 0 c6.3867 0 9.082 3.7695 9.082 8.4375 c0 3.7891 -2.1484 6.25 -5.9766 7.0703 l8.4961 12.715 l-6.9336 0 z M177.03123125 16.641 l0 6.7383 l3.457 0 c3.125 0 4.3945 -1.3281 4.3945 -3.3594 c0 -2.0117 -1.2695 -3.3789 -4.3945 -3.3789 l-3.457 0 z M219.82415625 40 l-2.0508 -5.8203 l-11.855 0 l-2.0508 5.8203 l-5.9961 0 l10.391 -28.223 l7.168 0 l10.391 28.223 l-5.9961 0 z M207.63715625 29.277 l8.418 0 l-4.1992 -11.973 z M233.6913625 40 l0 -28.223 l10.215 0 c9.0039 0 13.457 5.6641 13.457 14.102 c0 8.457 -4.4531 14.121 -13.457 14.121 l-10.215 0 z M239.5507625 34.8242 l4.0625 0 c5.1953 0 7.5781 -3.2422 7.5781 -8.9453 s-2.3828 -8.9453 -7.5781 -8.9453 l-4.0625 0 l0 17.891 z M266.48433125 40 l0 -28.223 l5.8594 0 l0 28.223 l-5.8594 0 z M302.539375 11.777000000000001 l5.8398 0 l0 28.223 l-6.7773 0 l-12.5 -20.176 l0 20.176 l-5.8398 0 l0 -28.223 l6.6992 0 l12.578 20.059 l0 -20.059 z M331.5230625 40.39063 c-8.1445 0 -14.141 -5.625 -14.141 -14.434 c0 -8.9258 6.1328 -14.57 14.434 -14.57 c5.4492 0 9.9609 2.4023 12.422 6.6406 l-5.1367 2.7344 c-1.4844 -2.8906 -4.1406 -4.2773 -7.2852 -4.2773 c-4.8828 0 -8.5547 3.3594 -8.5547 9.3359 c0 5.7617 3.4375 9.4727 8.7695 9.4727 c3.6133 0 6.9336 -1.7969 7.7344 -5.918 l-7.7148 0 l0 -4.707 l13.262 0 l0 15.332 l-4.6094 0 l0 -3.9063 c-1.8164 2.6758 -4.8633 4.2969 -9.1797 4.2969 z"/></g><g id="SvgjsG4106" featureKey="sloganFeature-0" transform="matrix(1.0266736627504458,0,0,1.0266736627504458,18.090387584542675,123.52581698844051)" fill="#000"><path d="M2.26 17.68 c-0.44 -0.82 0.68 -1.42 1.2 -0.6 c0.26 0.42 1.04 1.14 2.28 1.14 c0.52 0 1.82 -0.38 2 -1.86 c0.12 -0.9 -0.74 -1.78 -2.22 -2.52 c-2.08 -0.98 -3.66 -1.84 -3.66 -3.56 c0 -2.04 1.72 -3 3.56 -3 c1.66 0 2.58 1.02 2.9 1.54 c0.46 0.74 -0.54 1.46 -1.1 0.74 c-0.28 -0.36 -0.82 -0.96 -1.8 -0.96 c-1.1 0 -2.24 0.52 -2.24 1.68 c0 0.92 1.02 1.44 2.54 2.16 c1.78 0.88 3.64 1.74 3.36 4.08 c-0.22 1.84 -1.62 3.02 -3.34 3.02 c-1.3 0 -2.9 -0.7 -3.48 -1.86 z M17.5595 15.86 l0 -7.86 c0 -0.42 0.34 -0.64 0.66 -0.64 c0.34 0 0.66 0.22 0.66 0.64 l0 7.86 c0 1.44 0.98 2.3 2.34 2.3 l0.5 0 c1.4 0 2.36 -0.98 2.36 -2.3 l0 -7.86 c0 -0.42 0.32 -0.64 0.66 -0.64 c0.32 0 0.66 0.22 0.66 0.64 l0 7.86 c0 2.06 -1.46 3.64 -3.68 3.64 l-0.5 0 c-2.22 0 -3.66 -1.54 -3.66 -3.64 z M41.159 8 l0 10.76 c0 0.42 -0.32 0.64 -0.64 0.64 c-0.24 0 -0.56 -0.18 -0.7 -0.44 c-1.5 -2.94 -2.62 -5.2 -4.12 -8.16 l0 7.96 c0 0.42 -0.32 0.64 -0.66 0.64 c-0.32 0 -0.66 -0.22 -0.66 -0.64 l0 -10.76 c0 -0.7 1 -0.74 1.22 -0.32 l4.22 8.34 l0 -8.02 c0 -0.42 0.32 -0.64 0.66 -0.64 s0.68 0.22 0.68 0.64 z M57.1585 8 l0 10.76 c0 0.42 -0.32 0.64 -0.64 0.64 c-0.24 0 -0.56 -0.18 -0.7 -0.44 c-1.5 -2.94 -2.62 -5.2 -4.12 -8.16 l0 7.96 c0 0.42 -0.32 0.64 -0.66 0.64 c-0.32 0 -0.66 -0.22 -0.66 -0.64 l0 -10.76 c0 -0.7 1 -0.74 1.22 -0.32 l4.22 8.34 l0 -8.02 c0 -0.42 0.32 -0.64 0.66 -0.64 s0.68 0.22 0.68 0.64 z M72.07799999999999 8.3 l-2.48 5.14 l0 5.32 c0 0.44 -0.32 0.64 -0.64 0.64 c-0.34 0 -0.66 -0.22 -0.66 -0.64 l0 -5.32 l-2.54 -5.12 c-0.42 -0.88 0.8 -1.4 1.22 -0.56 l1.98 3.96 l1.9 -3.94 c0.44 -0.92 1.64 -0.34 1.22 0.52 z M91.95700000000001 7.359999999999999 l6.04 0 c0.42 0 0.62 0.34 0.62 0.68 s-0.2 0.66 -0.62 0.66 l-2.28 0 l0 10.06 c0 0.42 -0.34 0.64 -0.68 0.64 s-0.66 -0.22 -0.66 -0.64 l0 -10.06 l-2.42 0 c-0.42 0 -0.62 -0.32 -0.62 -0.66 s0.2 -0.68 0.62 -0.68 z M106.9765 18.78 l0 -10.78 c0 -0.42 0.32 -0.64 0.64 -0.64 s0.66 0.22 0.66 0.64 l0 10.78 c0 0.86 -1.3 0.86 -1.3 0 z M125.996 18.76 l0 -8.92 l-3.18 9 c-0.18 0.5 -0.84 0.62 -1.04 0 l-3.08 -9 l0 8.92 c0 0.42 -0.32 0.64 -0.66 0.64 s-0.68 -0.22 -0.68 -0.64 l0 -10.74 c0 -0.38 0.28 -0.66 0.68 -0.66 l0.64 0 c0.44 0 0.68 0.32 0.78 0.62 c0.96 2.86 1.84 5.4 2.82 8.28 l2.9 -8.34 c0.1 -0.28 0.28 -0.56 0.7 -0.56 l0.8 0 c0.58 0 0.66 0.32 0.66 0.64 l0 10.76 c0 0.42 -0.34 0.64 -0.68 0.64 s-0.66 -0.22 -0.66 -0.64 z  M136.4555 18.7 l0 -10.64 c0 -0.46 0.36 -0.7 0.7 -0.7 l4.6 0 c0.44 0 0.66 0.32 0.66 0.66 s-0.22 0.68 -0.66 0.68 l-3.96 0 l0 3.88 l3.14 0 c0.46 0 0.68 0.32 0.68 0.66 s-0.24 0.7 -0.68 0.7 l-3.14 0 l0 4.14 l3.96 0 c0.42 0 0.64 0.34 0.64 0.66 c0 0.34 -0.22 0.66 -0.64 0.66 l-4.6 0 c-0.34 0 -0.7 -0.12 -0.7 -0.7 z M150.855 17.68 c-0.44 -0.82 0.68 -1.42 1.2 -0.6 c0.26 0.42 1.04 1.14 2.28 1.14 c0.52 0 1.82 -0.38 2 -1.86 c0.12 -0.9 -0.74 -1.78 -2.22 -2.52 c-2.08 -0.98 -3.66 -1.84 -3.66 -3.56 c0 -2.04 1.72 -3 3.56 -3 c1.66 0 2.58 1.02 2.9 1.54 c0.46 0.74 -0.54 1.46 -1.1 0.74 c-0.28 -0.36 -0.82 -0.96 -1.8 -0.96 c-1.1 0 -2.24 0.52 -2.24 1.68 c0 0.92 1.02 1.44 2.54 2.16 c1.78 0.88 3.64 1.74 3.36 4.08 c-0.22 1.84 -1.62 3.02 -3.34 3.02 c-1.3 0 -2.9 -0.7 -3.48 -1.86 z"/></g>
			</g>
		</svg>
	