<?xml version="1.0" encoding="UTF-8"?><svg id="_レイヤー_2" xmlns="http://www.w3.org/2000/svg" xmlns:xlink="http://www.w3.org/1999/xlink" viewBox="0 0 3000 520.43"><defs><style>.cls-1{fill:url(#_名称未設定グラデーション_15-2);}.cls-2{fill:url(#_名称未設定グラデーション_15);}</style><linearGradient id="_名称未設定グラデーション_15" x1="987.41" y1="-72.62" x2="988.41" y2="-72.62" gradientTransform="translate(-2962218.16 -20970.5) scale(3000 -290.78)" gradientUnits="userSpaceOnUse"><stop offset="0" stop-color="#b88746"/><stop offset="1" stop-color="#fdf5a6"/></linearGradient><linearGradient id="_名称未設定グラデーション_15-2" x1="987.2" y1="-70.12" x2="988.2" y2="-70.12" gradientTransform="translate(-1880940.19 -9438.26) scale(1905.88 -141.02)" xlink:href="#_名称未設定グラデーション_15"/></defs><g id="_レイヤー_1-2"><g id="SvgjsG7561"><path class="cls-2" d="m336.01,286.86h-58.55l-18.6-213.24-71.67,213.24h-37.99L77.54,73.62l-18.8,213.24H0L23.69,3.92h83.81l60.31,177.6L228.9,3.92h83.81l23.3,282.94Zm61.49,0V3.92h58.74v282.94h-58.74ZM693.37,3.92v51.69h-67.16v231.25h-58.16V55.62h-67.55V3.92h192.87Zm44.44,282.94V3.92h58.74v282.94h-58.74Zm225.77,3.92c-60.7,0-108.09-29.18-116.7-82.24l60.7-13.9c3.92,31.72,27.22,48.17,58.35,48.17,23.89,0,42.88-10.57,42.69-34.46-.2-26.63-31.53-35.05-65.99-45.62-41.51-12.92-85.96-28.2-85.96-80.28S899.74,0,956.53,0c49.74,0,99.86,20.17,111.22,74.41l-56.78,14.1c-5.29-28.2-24.28-40.53-50.91-40.53-23.69,0-43.86,9.79-43.86,33.09,0,21.74,27.8,28.98,59.92,38.57,42.69,12.92,93.2,29.37,93.2,85.76,0,60.11-50.32,85.37-105.74,85.37h0ZM1391.82,3.92v51.69h-67.16v231.25h-58.16V55.62h-67.55V3.92h192.87Zm193.85,282.94l-73.62-124.53h-17.04v124.53h-58.74V3.92h102.6c64.03,0,91.05,37.79,91.05,84.59,0,37.99-21.54,62.66-59.92,70.88l85.18,127.47h-69.51,0Zm-90.66-234.19v67.55h34.66c31.33,0,44.06-13.31,44.06-33.68s-12.73-33.88-44.06-33.88h-34.66Zm392.61,234.19l-20.56-58.35h-118.86l-20.56,58.35h-60.11L1771.69,3.92h71.86l104.17,282.94h-60.11Zm-122.19-107.5h84.39l-42.1-120.03-42.3,120.03Zm224.79,107.5V3.92h102.41c90.27,0,134.91,56.78,134.91,141.37s-44.65,141.57-134.91,141.57h-102.41Zm58.74-51.89h40.73c52.09,0,75.97-32.5,75.97-89.68s-23.89-89.68-75.97-89.68h-40.73v179.36h0Zm233.6,51.89V3.92h58.74v282.94h-58.74ZM2607.6,3.92h58.55v282.94h-67.95l-125.32-202.27v202.27h-58.55V3.92h67.16l126.1,201.09V3.92Zm254.16,286.85c-81.65,0-141.77-56.39-141.77-144.7S2781.48,0,2864.69,0c54.63,0,99.86,24.09,124.53,66.58l-51.5,27.41c-14.88-28.98-41.51-42.88-73.04-42.88-48.95,0-85.76,33.68-85.76,93.6s34.46,94.97,87.92,94.97c36.22,0,69.51-18.01,77.54-59.33h-77.34v-47.19h132.96v153.71h-46.21v-39.16c-18.21,26.83-48.76,43.08-92.03,43.08h0Z"/></g><g id="SvgjsG7562"><path class="cls-1" d="m588.77,453.74c-25.5-5.91-38.25-16.85-38.23-32.81,0-11.74,4.12-20.52,12.33-26.34,8.21-5.82,17.86-8.73,28.96-8.73,24.31,0,38.74,9.07,43.31,27.21h-13.92c-2.5-10.79-12.29-16.18-29.39-16.18-12.07,0-20.51,3.58-25.3,10.74-1.82,2.64-2.72,6.01-2.71,10.1-.03,7.65,4.13,13.58,12.5,17.79,3.94,2.09,12.27,4.78,25,8.08,12.73,3.3,21.97,6.98,27.71,11.04,7.99,5.62,11.99,13.55,12.01,23.78-.02,12.56-4.99,22.07-14.92,28.51-8.33,5.44-18.63,8.17-30.9,8.17-27.69,0-43.74-10.54-48.15-31.62h15.22c2.36,13.24,13.34,19.86,32.95,19.86,13.98,0,23.75-3.89,29.31-11.66,2.16-3.01,3.24-7.12,3.24-12.33s-2.01-9.44-6.04-12.7c-5.78-4.72-16.77-9.01-32.96-12.9h0Zm245.43,17.6c0,13.54-4.41,24.2-13.24,31.99-8.33,7.35-19.43,11.03-33.28,11.03s-25.13-3.68-33.46-11.03c-8.83-7.79-13.24-18.45-13.24-31.99v-83.65h12.87v85.49c0,9.4,3.4,16.63,10.2,21.7,5.92,4.41,13.8,6.62,23.63,6.62,15.27,0,25.56-5.15,30.89-15.44,1.84-3.55,2.76-7.84,2.76-12.87v-85.49h12.87v83.65Zm121.86-50.74v92.11h-12.87v-132.93l70.23,99.83v-91.93h12.87v132.74l-70.23-99.83Zm194.85,0v92.11h-12.87v-132.93l70.23,99.83v-91.93h12.87v132.74l-70.23-99.83Zm230.34,33.27v58.84h-12.87v-58.81l-47.43-66.21h16.55l37.32,53.5,37.32-53.5h16.36l-47.25,66.18Zm270.75-54.6v-11.95h73.54v11.95h-30.34v113.07h-12.87v-113.07s-30.34,0-30.34,0Zm188.05,113.44h-12.87v-125.02h12.87v125.02Zm227.03,0l-19.49-88.99-37.51,96.34-37.69-96.34-19.3,88.99h-13.24l29.23-133.3,41,107,41-107,29.05,133.3h-13.05Zm187.13,0h-74.28v-125.02h74.28v11.95h-61.41v44.49h59.57v12.13h-59.57v44.49h61.41v11.95Zm146.48-58.97c-25.5-5.91-38.25-16.85-38.23-32.81,0-11.74,4.12-20.52,12.33-26.34,8.21-5.82,17.86-8.73,28.96-8.73,24.31,0,38.74,9.07,43.31,27.21h-13.92c-2.5-10.79-12.29-16.18-29.39-16.18-12.07,0-20.51,3.58-25.3,10.74-1.82,2.64-2.72,6.01-2.71,10.1-.03,7.65,4.13,13.58,12.5,17.79,3.94,2.09,12.27,4.78,25,8.08,12.73,3.3,21.97,6.98,27.71,11.04,7.99,5.62,11.99,13.55,12.01,23.78-.02,12.56-4.99,22.07-14.92,28.51-8.33,5.44-18.63,8.17-30.9,8.17-27.69,0-43.74-10.54-48.15-31.62h15.22c2.36,13.24,13.34,19.86,32.95,19.86,13.98,0,23.75-3.89,29.31-11.66,2.16-3.01,3.24-7.12,3.24-12.33s-2.01-9.44-6.04-12.7c-5.78-4.72-16.77-9.01-32.96-12.9h0Z"/></g></g></svg>