<?xml version="1.0" encoding="UTF-8"?><svg id="_レイヤー_2" xmlns="http://www.w3.org/2000/svg" xmlns:xlink="http://www.w3.org/1999/xlink" viewBox="0 0 1500 1262.74"><defs><style>.cls-1{fill:url(#_名称未設定グラデーション_13-12);}.cls-2{fill:url(#_名称未設定グラデーション_13);}.cls-3{fill:url(#_名称未設定グラデーション_13-9);}.cls-4{fill:url(#_名称未設定グラデーション_13-3);}.cls-5{fill:url(#_名称未設定グラデーション_13-5);}.cls-6{fill:url(#_名称未設定グラデーション_13-8);}.cls-7{fill:url(#_名称未設定グラデーション_13-2);}.cls-8{fill:url(#_名称未設定グラデーション_13-6);}.cls-9{fill:url(#_名称未設定グラデーション_13-4);}.cls-10{fill:url(#_名称未設定グラデーション_13-7);}.cls-11{fill:url(#_名称未設定グラデーション_13-11);}.cls-12{fill:url(#_名称未設定グラデーション_13-10);}.cls-13{fill:url(#_名称未設定グラデーション_13-13);}</style><linearGradient id="_名称未設定グラデーション_13" x1="236.23" y1="1364.24" x2="237.23" y2="1364.24" gradientTransform="translate(-165189.8 954387.66) scale(699.29 -699.32)" gradientUnits="userSpaceOnUse"><stop offset="0" stop-color="#b88746"/><stop offset="1" stop-color="#fdf5a6"/></linearGradient><linearGradient id="_名称未設定グラデーション_13-2" x1="233.36" y1="1367.52" x2="234.36" y2="1367.52" gradientTransform="translate(-56428.37 220585.24) scale(244.32 -160.76)" xlink:href="#_名称未設定グラデーション_13"/><linearGradient id="_名称未設定グラデーション_13-3" x1="233.42" y1="1366.84" x2="234.42" y2="1366.84" gradientTransform="translate(-56956.32 262034.61) scale(247.83 -191.32)" xlink:href="#_名称未設定グラデーション_13"/><linearGradient id="_名称未設定グラデーション_13-4" x1="233.12" y1="1367.52" x2="234.12" y2="1367.52" gradientTransform="translate(-53197 220585.24) scale(231.57 -160.76)" xlink:href="#_名称未設定グラデーション_13"/><linearGradient id="_名称未設定グラデーション_13-5" x1="233.12" y1="1367.52" x2="234.12" y2="1367.52" gradientTransform="translate(-53283.37 220743.69) scale(231.48 -160.73)" xlink:href="#_名称未設定グラデーション_13"/><linearGradient id="_名称未設定グラデーション_13-6" x1="233.54" y1="1366.61" x2="234.54" y2="1366.61" gradientTransform="translate(-58966.96 280495.94) scale(254.83 -204.4)" xlink:href="#_名称未設定グラデーション_13"/><linearGradient id="_名称未設定グラデーション_13-7" x1="233.36" y1="1367.52" x2="234.36" y2="1367.52" gradientTransform="translate(-56521.8 220743.69) scale(244.26 -160.73)" xlink:href="#_名称未設定グラデーション_13"/><linearGradient id="_名称未設定グラデーション_13-8" x1="233.74" y1="1366.62" x2="234.74" y2="1366.62" gradientTransform="translate(-62098.7 279642.86) scale(267.16 -203.78)" xlink:href="#_名称未設定グラデーション_13"/><linearGradient id="_名称未設定グラデーション_13-9" x1="233.47" y1="1367.52" x2="234.47" y2="1367.52" gradientTransform="translate(-57671.25 220743.69) scale(250.72 -160.73)" xlink:href="#_名称未設定グラデーション_13"/><linearGradient id="_名称未設定グラデーション_13-10" x1="233.64" y1="1366.83" x2="234.64" y2="1366.83" gradientTransform="translate(-60286.93 262927.71) scale(261 -191.98)" xlink:href="#_名称未設定グラデーション_13"/><linearGradient id="_名称未設定グラデーション_13-11" x1="233.73" y1="1366.85" x2="234.73" y2="1366.85" gradientTransform="translate(-61188.37 261182.15) scale(266.42 -190.7)" xlink:href="#_名称未設定グラデーション_13"/><linearGradient id="_名称未設定グラデーション_13-12" x1="233.47" y1="1367.52" x2="234.47" y2="1367.52" gradientTransform="translate(-57549.48 220585.24) scale(250.66 -160.76)" xlink:href="#_名称未設定グラデーション_13"/><linearGradient id="_名称未設定グラデーション_13-13" x1="236.36" y1="1365.22" x2="237.36" y2="1365.22" gradientTransform="translate(-180370.1 479524.62) scale(766.22 -350.45)" xlink:href="#_名称未設定グラデーション_13"/></defs><g id="_レイヤー_1-2"><g id="SvgjsG7560"><path class="cls-2" d="m699.29,378.06v-56.92h-135.68c-4.47-38.66-19.39-74.08-41.61-103.6l95.02-95.11-40.21-40.21-94.78,94.72c-29.49-22.88-65.09-38.19-103.9-43.07V0h-56.95v134.4c-38.4,5.45-73.46,20.97-102.47,44.06l-96.15-96.21-40.27,40.3,96.99,96.9c-21.51,29.19-35.83,63.89-40.21,101.69H0v56.92h140.24c5.6,36.73,20.49,70.36,42.27,98.45l-100.2,100.23,40.24,40.27,100.5-100.53c28.18,21.18,61.69,35.6,98.15,40.78v142.06h56.95v-141.52c36.94-4.68,70.83-18.8,99.52-39.86l99.13,99.13,40.24-40.27-98.27-98.3c22.61-28.51,37.98-62.82,43.7-100.38h136.81v-.06Zm-348.33,123.95c-86.44,0-156.53-70.06-156.53-156.59s70.06-156.5,156.53-156.5,156.53,70.09,156.53,156.5c.03,86.53-70.06,156.59-156.53,156.59Z"/><polygon class="cls-7" points="829.58 659.43 672.09 659.43 585.26 820.19 742.69 820.19 829.58 659.43"/><polygon class="cls-4" points="1037.67 621.07 1140.85 430.25 996.42 429.74 893.02 621.07 1037.67 621.07"/><polygon class="cls-9" points="1016.94 659.43 872.26 659.43 785.37 820.19 930.05 820.19 1016.94 659.43"/><polygon class="cls-5" points="677.75 1019.29 822.34 1019.29 909.23 858.56 764.61 858.56 677.75 1019.29"/><polygon class="cls-8" points="656.99 1057.66 546.75 1261.58 691.1 1262.06 801.58 1057.66 656.99 1057.66"/><polygon class="cls-10" points="721.93 858.56 564.53 858.56 477.67 1019.29 635.01 1019.29 721.93 858.56"/><polygon class="cls-6" points="456.94 1057.66 347.11 1260.96 504.09 1261.43 614.27 1057.66 456.94 1057.66"/><polygon class="cls-3" points="1115.8 858.56 951.97 858.56 865.08 1019.29 1028.94 1019.29 1115.8 858.56"/><polygon class="cls-12" points="953.82 429.62 796.51 429.09 692.82 621.07 850.34 621.07 953.82 429.62"/><polygon class="cls-11" points="1244.1 621.07 1346.8 430.93 1183.48 430.37 1080.39 621.07 1244.1 621.07"/><polygon class="cls-1" points="1223.37 659.43 1059.59 659.43 972.7 820.19 1136.51 820.19 1223.37 659.43"/><path class="cls-13" d="m1472.27,1116.88h-116.32v-61.42h116.32c15.34,0,27.73-12.42,27.73-27.73s-12.39-27.73-27.73-27.73h-116.32v-87.69c-93.29,0-169.76,63.21-183.22,145.51l-328.38-.15-110.57,204.52,163.68.57,85.16-157.69h189.72c11.86,83.76,89.03,148.85,183.58,148.85v-81.62h116.32c15.34,0,27.73-12.39,27.73-27.7,0-15.31-12.39-27.7-27.7-27.7Z"/></g></g></svg>