<?xml version="1.0" encoding="UTF-8"?><svg id="_レイヤー_2" xmlns="http://www.w3.org/2000/svg" xmlns:xlink="http://www.w3.org/1999/xlink" viewBox="0 0 699.29 699.32"><defs><style>.cls-1{fill:url(#_名称未設定グラデーション);}</style><linearGradient id="_名称未設定グラデーション" x1="236.23" y1="1364.24" x2="237.23" y2="1364.24" gradientTransform="translate(-165189.8 954387.66) scale(699.29 -699.32)" gradientUnits="userSpaceOnUse"><stop offset="0" stop-color="#b88746"/><stop offset="1" stop-color="#fdf5a6"/></linearGradient></defs><g id="_レイヤー_1-2"><path class="cls-1" d="m699.29,378.06v-56.92h-135.68c-4.47-38.66-19.39-74.08-41.61-103.6l95.02-95.11-40.21-40.21-94.78,94.72c-29.49-22.88-65.09-38.19-103.9-43.07V0h-56.95v134.4c-38.4,5.45-73.46,20.97-102.47,44.06l-96.15-96.21-40.27,40.3,96.99,96.9c-21.51,29.19-35.83,63.89-40.21,101.69H0v56.92h140.24c5.6,36.73,20.49,70.36,42.27,98.45l-100.2,100.23,40.24,40.27,100.5-100.53c28.18,21.18,61.69,35.6,98.15,40.78v142.06h56.95v-141.52c36.94-4.68,70.83-18.8,99.52-39.86l99.13,99.13,40.24-40.27-98.27-98.3c22.61-28.51,37.98-62.82,43.7-100.38h136.81v-.06Zm-348.33,123.95c-86.44,0-156.53-70.06-156.53-156.59s70.06-156.5,156.53-156.5,156.53,70.09,156.53,156.5c.03,86.53-70.06,156.59-156.53,156.59Z"/></g></svg>